HIERARCHY
ROOT joint_Root
{
  OFFSET 0 0 0
  CHANNELS 6 Xposition Yposition Zposition Zrotation Xrotation Yrotation
  JOINT Hips
  {
    OFFSET -11.2566 91.3362 32.6117
    CHANNELS 6 Xposition Yposition Zposition Zrotation Xrotation Yrotation
    JOINT Spine
    {
      OFFSET 15.7357 0 0
      CHANNELS 6 Xposition Yposition Zposition Zrotation Xrotation Yrotation
      JOINT Chest
      {
        OFFSET 8.98455 -0.406207 0
        CHANNELS 6 Xposition Yposition Zposition Zrotation Xrotation Yrotation
        JOINT Neck
        {
          OFFSET 16.3773 0 0
          CHANNELS 6 Xposition Yposition Zposition Zrotation Xrotation Yrotation
          JOINT Head
          {
            OFFSET 6.45672 0 0
            CHANNELS 6 Xposition Yposition Zposition Zrotation Xrotation Yrotation
            End Site
            {
              OFFSET 0 0 0
            }
          }
        }
        JOINT Shoulder_L
        {
          OFFSET 12.9942 -0.242716 4.98039
          CHANNELS 6 Xposition Yposition Zposition Zrotation Xrotation Yrotation
          JOINT UpperArm_L
          {
            OFFSET 5.34809 0 0
            CHANNELS 6 Xposition Yposition Zposition Zrotation Xrotation Yrotation
            JOINT LowerArm_L
            {
              OFFSET 24.3286 1.87007e-05 0
              CHANNELS 6 Xposition Yposition Zposition Zrotation Xrotation Yrotation
              JOINT Hand_L
              {
                OFFSET 22.2916 0 0
                CHANNELS 6 Xposition Yposition Zposition Zrotation Xrotation Yrotation
                End Site
                {
                  OFFSET 0 0 0
                }
              }
            }
          }
        }
        JOINT Shoulder_R
        {
          OFFSET 12.9945 -0.242716 -4.98039
          CHANNELS 6 Xposition Yposition Zposition Zrotation Xrotation Yrotation
          JOINT UpperArm_R
          {
            OFFSET -5.34813 0 0
            CHANNELS 6 Xposition Yposition Zposition Zrotation Xrotation Yrotation
            JOINT LowerArm_R
            {
              OFFSET -24.3289 0.000322201 0
              CHANNELS 6 Xposition Yposition Zposition Zrotation Xrotation Yrotation
              JOINT Hand_R
              {
                OFFSET -22.2915 -0.000108084 0
                CHANNELS 6 Xposition Yposition Zposition Zrotation Xrotation Yrotation
                End Site
                {
                  OFFSET 0 0 0
                }
              }
            }
          }
        }
      }
    }
    JOINT UpperLeg_L
    {
      OFFSET -2.19248 -6.46944 0
      CHANNELS 6 Xposition Yposition Zposition Zrotation Xrotation Yrotation
      JOINT LowerLeg_L
      {
        OFFSET 39.0811 0 -1.23785e-05
        CHANNELS 6 Xposition Yposition Zposition Zrotation Xrotation Yrotation
        JOINT Foot_L
        {
          OFFSET 40.9854 0 -1.26872e-05
          CHANNELS 6 Xposition Yposition Zposition Zrotation Xrotation Yrotation
          JOINT Toes_L
          {
            OFFSET 11.7543 0 0
            CHANNELS 6 Xposition Yposition Zposition Zrotation Xrotation Yrotation
            End Site
            {
              OFFSET 0 0 0
            }
          }
        }
      }
    }
    JOINT UpperLeg_R
    {
      OFFSET -2.19251 6.46944 0
      CHANNELS 6 Xposition Yposition Zposition Zrotation Xrotation Yrotation
      JOINT LowerLeg_R
      {
        OFFSET -39.0811 -0.00228153 -0.0401928
        CHANNELS 6 Xposition Yposition Zposition Zrotation Xrotation Yrotation
        JOINT Foot_R
        {
          OFFSET -40.9854 0 0
          CHANNELS 6 Xposition Yposition Zposition Zrotation Xrotation Yrotation
          JOINT Toes_R
          {
            OFFSET -11.7543 0 0
            CHANNELS 6 Xposition Yposition Zposition Zrotation Xrotation Yrotation
            End Site
            {
              OFFSET 0 0 0
            }
          }
        }
      }
    }
  }
}
MOTION
Frames:	9
Frame Time:	0.0333333
0 0 0 0 0 -0 -5.878 112.95 -78.7294 88.3633 9.13344 -0.849342 15.7357 5.1072e-06 -5.51765e-07 92.6048 78.6632 -90.9569 8.98455 -0.406207 -4.3199e-07 5.77017 0.379318 0.890327 16.3773 -1.3905e-06 -6.99897e-07 -28.9118 -2.22302 -2.66688 6.45672 -1.25837e-06 -1.02172e-07 3.6238 -4.70339 4.18349 12.9942 -0.242716 4.98039 -88.3497 -0.608876 -98.3245 5.34809 -7.22636e-06 -6.2814e-07 -10.7126 71.525 -31.0889 24.3286 1.87007e-05 4.90208e-06 0.00446375 4.03226e-05 -73.2736 22.2916 -9.88446e-07 4.63217e-06 -44.7952 0.434082 6.89049 12.9945 -0.242716 -4.98039 92.2121 1.9146 -102.842 -5.34813 -1.25947e-06 -3.79883e-06 -39.2626 51.9484 -3.81621 -24.3289 0.000322201 -8.65921e-06 0.00715846 -0.000217753 -45.4795 -22.2915 -0.000108084 -4.47941e-06 -37.4254 4.7307 0.443413 -2.19248 -6.46944 -1.22534e-07 -176.618 -3.9249 -9.11181 39.0811 -6.73843e-06 -1.23785e-05 0.00817226 -0.10949 4.45002 40.9854 -6.48686e-06 -1.26872e-05 -3.95364 -1.80182 0.925954 11.7543 -2.30145e-07 3.05095e-06 1.70573e-05 7.17796e-06 -16.577 -2.19251 6.46944 -1.45247e-06 179.602 -1.11175 170.535 -39.0811 -0.00228153 -0.0401928 0.0113219 -0.135037 3.46632 -40.9854 7.72618e-06 5.99936e-06 -7.17196 -9.62503 -14.187 -11.7543 -5.6619e-06 -5.58687e-06 2.43347e-06 7.54242e-06 -16.5734 
0 0 0 0 0 -0 -5.54375 110.935 -77.8913 88.8302 9.42792 -0.717978 15.7357 5.1072e-06 -5.51765e-07 91.3032 79.5014 -90.3953 8.98455 -0.406207 -4.3199e-07 3.15716 0.192832 1.11087 16.3773 -1.3905e-06 -6.99897e-07 -21.691 -2.59518 -1.50681 6.45672 -1.25837e-06 -1.02172e-07 4.78879 -4.20016 3.2789 12.9942 -0.242716 4.98039 -88.957 0.767496 -95.5116 5.34809 -7.22636e-06 -6.2814e-07 -19.6044 58.934 -20.1516 24.3286 1.87007e-05 4.90208e-06 -2.21362e-05 5.5531e-05 -77.6714 22.2916 -9.88446e-07 4.63217e-06 -44.5724 -3.14179 7.97614 12.9945 -0.242716 -4.98039 91.4046 3.19763 -98.5024 -5.34813 -1.25947e-06 -3.79883e-06 -36.795 43.3318 -3.06927 -24.3289 0.000322201 -8.65921e-06 0.0822048 -0.000241361 -52.3976 -22.2915 -0.000108084 -4.47941e-06 -28.8421 -4.42144 -2.96444 -2.19248 -6.46944 -1.22534e-07 -177.019 -3.33279 -8.51724 39.0811 -6.73843e-06 -1.23785e-05 0.00822585 -0.10121 4.91261 40.9854 -6.48686e-06 -1.26872e-05 -3.74661 -1.47869 0.301757 11.7543 -2.30145e-07 3.05095e-06 -1.11601e-05 1.69879e-05 -16.577 -2.19251 6.46944 -1.45247e-06 179.468 -0.984161 171.349 -39.0811 -0.00228153 -0.0401928 0.0117763 -0.132249 3.68338 -40.9854 7.72618e-06 5.99936e-06 -6.86284 -9.35591 -15.3696 -11.7543 -5.6619e-06 -5.58687e-06 -2.8738e-06 1.19167e-05 -16.5734 
0 0 0 0 0 -0 -5.2066 107.911 -76.8396 89.1593 9.44008 -0.740632 15.7357 5.1072e-06 -5.51765e-07 90.5528 80.567 -90.076 8.98455 -0.406207 -4.3199e-07 0.365746 0.0773064 1.03841 16.3773 -1.3905e-06 -6.99897e-07 -15.7575 -2.72861 -0.702725 6.45672 -1.25837e-06 -1.02172e-07 6.80315 -3.80895 2.76147 12.9942 -0.242716 4.98039 -89.8783 1.63511 -91.1151 5.34809 -7.22636e-06 -6.2814e-07 -30.7232 38.4504 -13.7627 24.3286 1.87007e-05 4.90208e-06 0.0148134 5.76751e-05 -83.6253 22.2916 -9.88446e-07 4.63217e-06 -32.1325 -2.18466 7.72606 12.9945 -0.242716 -4.98039 90.3512 4.74815 -93.0169 -5.34813 -1.25947e-06 -3.79883e-06 -38.8228 26.248 -2.55369 -24.3289 0.000322201 -8.65921e-06 -0.000484873 -0.000194507 -61.7933 -22.2915 -0.000108084 -4.47941e-06 -18.1869 -17.124 -8.33345 -2.19248 -6.46944 -1.22534e-07 -177.356 -2.86284 -7.77295 39.0811 -6.73843e-06 -1.23785e-05 0.00911513 -0.100622 5.94719 40.9854 -6.48686e-06 -1.26872e-05 -2.82138 -1.80213 -1.60473 11.7543 -2.30145e-07 3.05095e-06 3.39615e-06 1.01344e-05 -16.577 -2.19251 6.46944 -1.45247e-06 179.573 -1.39286 171.909 -39.0811 -0.00228153 -0.0401928 0.0125442 -0.101716 5.26508 -40.9854 7.72618e-06 5.99936e-06 -5.86194 -9.51515 -17.5126 -11.7543 -5.6619e-06 -5.58687e-06 3.96759e-06 1.23928e-05 -16.5734 
0 0 0 0 0 -0 -4.82697 103.959 -75.615 89.4957 9.124 -0.664322 15.7357 5.1072e-06 -5.51765e-07 89.5691 81.3751 -89.4147 8.98455 -0.406207 -4.3199e-07 -1.79328 -0.0584816 0.834912 16.3773 -1.3905e-06 -6.99897e-07 -12.2054 -2.66044 -0.291296 6.45672 -1.25837e-06 -1.02172e-07 8.09002 -3.471 2.54163 12.9942 -0.242716 4.98039 -90.7326 2.94291 -86.7428 5.34809 -7.22636e-06 -6.2814e-07 -45.0511 10.9978 -13.5195 24.3286 1.87007e-05 4.90208e-06 -0.000119631 5.71779e-05 -94.8855 22.2916 -9.88446e-07 4.63217e-06 -18.9799 -12.8066 1.08203 12.9945 -0.242716 -4.98039 89.4914 7.37106 -88.7757 -5.34813 -1.25947e-06 -3.79883e-06 -45.1567 0.055853 -5.11212 -24.3289 0.000322201 -8.65921e-06 0.000465134 6.57917e-05 -79.5667 -22.2915 -0.000108084 -4.47941e-06 -12.5401 -30.5817 -12.9942 -2.19248 -6.46944 -1.22534e-07 -177.822 -2.35304 -6.34189 39.0811 -6.73843e-06 -1.23785e-05 0.0101053 -0.107149 6.93354 40.9854 -6.48686e-06 -1.26872e-05 -1.19464 -3.26498 -5.00877 11.7543 -2.30145e-07 3.05095e-06 -2.663e-06 3.01849e-06 -16.577 -2.19251 6.46944 -1.45247e-06 179.855 -2.40491 170.788 -39.0811 -0.00228153 -0.0401928 0.0110264 -0.0355194 11.3436 -40.9854 7.72618e-06 5.99936e-06 -4.39435 -10.3638 -22.5848 -11.7543 -5.6619e-06 -5.58687e-06 1.12017e-05 1.22468e-05 -16.5734 
0 0 0 0 0 -0 -4.37685 99.3479 -74.5114 90.0383 8.47308 0.276522 15.7357 5.1072e-06 -5.51765e-07 88.2255 80.8792 -88.7259 8.98455 -0.406207 -4.3199e-07 -3.16882 -0.194189 0.815676 16.3773 -1.3905e-06 -6.99897e-07 -9.82369 -2.51312 0.236062 6.45672 -1.25837e-06 -1.02172e-07 6.18481 -3.06145 2.20482 12.9942 -0.242716 4.98039 -91.2033 4.48153 -84.908 5.34809 -7.22636e-06 -6.2814e-07 -68.1343 -22.2839 -23.0875 24.3286 1.87007e-05 4.90208e-06 -0.000292025 6.81395e-05 -111.847 22.2916 -9.88446e-07 4.63217e-06 -15.2612 -35.8737 -6.02569 12.9945 -0.242716 -4.98039 89.1245 9.52171 -87.6828 -5.34813 -1.25947e-06 -3.79883e-06 -62.526 -35.1299 -17.6919 -24.3289 0.000322201 -8.65921e-06 -6.81342e-05 7.18521e-05 -102.958 -22.2915 -0.000108084 -4.47941e-06 -14.3982 -38.1205 -11.9265 -2.19248 -6.46944 -1.22534e-07 -178.649 -1.74217 -7.23564 39.0811 -6.73843e-06 -1.23785e-05 0.0135899 -0.0598835 15.8955 40.9854 -6.48686e-06 -1.26872e-05 0.140678 -5.49678 -18.3168 11.7543 -2.30145e-07 3.05095e-06 -7.17727 -9.69317 -31.9771 -2.19251 6.46944 -1.45247e-06 -179.867 -3.36865 170.336 -39.0811 -0.00228153 -0.0401928 0.000671144 0.0124698 18.8299 -40.9854 7.72618e-06 5.99936e-06 -2.81753 -11.137 -32.0295 -11.7543 -5.6619e-06 -5.58687e-06 1.29996 1.53687 -19.1648 
0 0 0 0 0 -0 -3.93527 95.1803 -73.6549 90.216 7.58632 1.48299 15.7357 5.1072e-06 -5.51765e-07 87.919 80.1476 -88.7864 8.98455 -0.406207 -4.3199e-07 -3.55283 -0.208784 0.843793 16.3773 -1.3905e-06 -6.99897e-07 -8.5883 -2.51646 1.27096 6.45672 -1.25837e-06 -1.02172e-07 2.20565 -2.66673 1.74307 12.9942 -0.242716 4.98039 -91.1668 4.52503 -85.7266 5.34809 -7.22636e-06 -6.2814e-07 -113.144 -48.824 -53.2296 24.3286 1.87007e-05 4.90208e-06 -0.0001119 2.8769e-05 -128.937 22.2916 -9.88446e-07 4.63217e-06 -22.2241 -54.5374 -12.6206 12.9945 -0.242716 -4.98039 89.2397 9.33101 -88.8157 -5.34813 -1.25947e-06 -3.79883e-06 -113.156 -59.7297 -59.5101 -24.3289 0.000322201 -8.65921e-06 -1.98177e-05 8.96677e-05 -122.291 -22.2915 -0.000108084 -4.47941e-06 -23.4652 -51.6187 -10.7339 -2.19248 -6.46944 -1.22534e-07 -179.454 -1.22479 -8.76387 39.0811 -6.73843e-06 -1.23785e-05 0.0050781 -0.000647344 29.1738 40.9854 -6.48686e-06 -1.26872e-05 -0.031591 -10.4563 -46.2007 11.7543 -2.30145e-07 3.05095e-06 -6.22572 -7.95381 -25.7045 -2.19251 6.46944 -1.45247e-06 -179.187 -4.31152 170.038 -39.0811 -0.00228153 -0.0401928 -0.00567183 0.0253349 27.9983 -40.9854 7.72618e-06 5.99936e-06 -1.5713 -11.3641 -50.7745 -11.7543 -5.6619e-06 -5.58687e-06 -0.0591387 -0.265583 -29.0471 
0 0 0 0 0 -0 -3.58107 92.7495 -72.9457 89.8022 6.54052 2.33288 15.7357 5.1072e-06 -5.51765e-07 89.1113 80.3065 -89.6113 8.98455 -0.406207 -4.3199e-07 -2.83718 -0.0597413 0.696091 16.3773 -1.3905e-06 -6.99897e-07 -8.71484 -2.66197 2.21201 6.45672 -1.25837e-06 -1.02172e-07 -0.816137 -2.5306 1.65928 12.9942 -0.242716 4.98039 -90.9386 3.53685 -86.5685 5.34809 -7.22636e-06 -6.2814e-07 -146.372 -52.7366 -77.2078 24.3286 1.87007e-05 4.90208e-06 0.00844712 2.16462e-05 -135.178 22.2916 -9.88446e-07 4.63217e-06 -25.6259 -61.8141 -14.2893 12.9945 -0.242716 -4.98039 89.5035 7.77063 -89.9958 -5.34813 -1.25947e-06 -3.79883e-06 -140.485 -59.0681 -82.2019 -24.3289 0.000322201 -8.65921e-06 -5.96082e-05 9.85043e-05 -125.935 -22.2915 -0.000108084 -4.47941e-06 -27.9354 -56.6879 -11.6121 -2.19248 -6.46944 -1.22534e-07 179.993 -0.549677 -7.08083 39.0811 -6.73843e-06 -1.23785e-05 0.0150142 -0.00911149 32.3587 40.9854 -6.48686e-06 -1.26872e-05 -0.0924689 -14.7018 -60.8347 11.7543 -2.30145e-07 3.05095e-06 -1.76737 -2.11887 -18.2867 -2.19251 6.46944 -1.45247e-06 -178.43 -5.83144 171.45 -39.0811 -0.00228153 -0.0401928 -0.000805301 0.0189135 31.4446 -40.9854 7.72618e-06 5.99936e-06 -2.32498 -11.6048 -64.447 -11.7543 -5.6619e-06 -5.58687e-06 -0.0117612 -0.0933623 -20.6329 
0 0 0 0 0 -0 -3.33822 93.6588 -72.3334 89.3002 5.4709 2.61349 15.7357 5.1072e-06 -5.51765e-07 91.2934 81.2592 -91.1873 8.98455 -0.406207 -4.3199e-07 -1.34662 0.195932 0.361227 16.3773 -1.3905e-06 -6.99897e-07 -9.84225 -2.88365 2.5874 6.45672 -1.25837e-06 -1.02172e-07 -2.02852 -2.74739 1.98872 12.9942 -0.242716 4.98039 -90.7076 2.96249 -86.2367 5.34809 -7.22636e-06 -6.2814e-07 -120.588 -50.0933 -55.9073 24.3286 1.87007e-05 4.90208e-06 -4.06711e-06 3.52267e-05 -125.251 22.2916 -9.88446e-07 4.63217e-06 -16.5063 -50.294 -7.78563 12.9945 -0.242716 -4.98039 89.7758 6.71174 -90.2571 -5.34813 -1.25947e-06 -3.79883e-06 -103.487 -54.9175 -51.7367 -24.3289 0.000322201 -8.65921e-06 9.37952e-05 9.07701e-05 -111.826 -22.2915 -0.000108084 -4.47941e-06 -22.0217 -42.3804 -10.1889 -2.19248 -6.46944 -1.22534e-07 -179.816 -0.348408 -5.5148 39.0811 -6.73843e-06 -1.23785e-05 0.0108388 -0.00398696 29.9177 40.9854 -6.48686e-06 -1.26872e-05 0.0474836 -15.8847 -56.9839 11.7543 -2.30145e-07 3.05095e-06 -3.0582 -3.70424 -19.5797 -2.19251 6.46944 -1.45247e-06 -178.039 -6.61826 173.292 -39.0811 -0.00228153 -0.0401928 -0.00214277 0.0236338 28.4146 -40.9854 7.72618e-06 5.99936e-06 -2.17112 -11.2811 -61.3378 -11.7543 -5.6619e-06 -5.58687e-06 -0.0199703 -0.119671 -22.0203 
0 0 0 0 0 -0 -3.18959 96.5762 -72.1262 88.7934 4.5298 1.84355 15.7357 5.1072e-06 -5.51765e-07 94.1039 82.8761 -93.4185 8.98455 -0.406207 -4.3199e-07 0.475497 0.448013 0.0232462 16.3773 -1.3905e-06 -6.99897e-07 -11.6742 -3.10391 2.43077 6.45672 -1.25837e-06 -1.02172e-07 -2.30405 -3.18509 2.54339 12.9942 -0.242716 4.98039 -90.3855 2.55906 -86.104 5.34809 -7.22636e-06 -6.2814e-07 -84.3499 -34.7645 -28.7778 24.3286 1.87007e-05 4.90208e-06 -2.16537e-05 5.86343e-05 -107.193 22.2916 -9.88446e-07 4.63217e-06 -8.48057 -30.1759 -5.54331 12.9945 -0.242716 -4.98039 90.0343 5.7075 -90.001 -5.34813 -1.25947e-06 -3.79883e-06 -66.2646 -33.9557 -23.8865 -24.3289 0.000322201 -8.65921e-06 -0.000150865 7.94167e-05 -92.4858 -22.2915 -0.000108084 -4.47941e-06 -11.1682 -28.0439 -8.44845 -2.19248 -6.46944 -1.22534e-07 -178.756 -1.83723 -5.43151 39.0811 -6.73843e-06 -1.23785e-05 0.0065408 -0.00652831 24.198 40.9854 -6.48686e-06 -1.26872e-05 1.4443 -13.066 -38.9558 11.7543 -2.30145e-07 3.05095e-06 -7.63053 -10.0504 -29.889 -2.19251 6.46944 -1.45247e-06 -178.444 -4.75465 173.546 -39.0811 -0.00228153 -0.0401928 -0.00375611 0.0286169 22.3524 -40.9854 7.72618e-06 5.99936e-06 -1.74809 -8.28058 -45.3885 -11.7543 -5.6619e-06 -5.58687e-06 -0.0885595 -0.18642 -31.6545 
